<?xml version="1.0" encoding="UTF-8"?><svg id="Capa_2" xmlns="http://www.w3.org/2000/svg" xmlns:xlink="http://www.w3.org/1999/xlink" viewBox="0 0 208.44 208.44"><defs><style>.avatar-1,.avatar-2,.avatar-3,.avatar-4{stroke:#000;stroke-miterlimit:10;}.avatar-1,.avatar-5{fill:none;}.avatar-3{fill:#ffb491;}.avatar-6{fill:#b72a40;}.avatar-7{fill:#ff2a40;}.avatar-8{fill:#84dac4;}.avatar-9{fill:#257074;}.avatar-4{fill:#004446;}.avatar-10{fill:#104e4a;}.avatar-11{fill:#313230;}.avatar-12{clip-path:url(#clippath);}.avatar-13{fill:#cb9996;}</style><clipPath id="clippath"><circle class="avatar-5" cx="104.22" cy="104.22" r="104.22"/></clipPath></defs><g id="Capa_11"><g class="avatar-12"><ellipse class="avatar-7" cx="100.94" cy="99.06" rx="121.17" ry="127.17"/><path class="avatar-6" d="M66.89,166.56h-.06c-13.39,3-29.17,7-32.72,9.89-3.56,2.89-16.11,35.44-16.11,35.44h126.01s-12.56-32.56-16.11-35.44c-3.56-2.89-19.33-6.89-32.72-9.89h-.06c-.28-6.36-1.43-23.48-1.44-27.27,.01-.02,.03-.04,.05-.06h4.29c9.78,0,12-24.22,13.78-35,.94-5.68,1.11-17.46,1.01-28.19,1.88,.94,3.52,1.52,4.8,1.52,2.44,0,1.83-2.6-.91-6.07,.06-.72,.13-1.8,.15-3.36,.35,.12,.67,.23,.94,.31l.11,.05h.11c.31,.09,.57,.14,.74,.14,.16,0,.33-.03,.51-.07l.69,.04s.21-.18,.55-.48c1.75-.88,3.79-2.85,5.4-5.19,.22-.26,.39-.48,.5-.65,.13-.21,.28-.51,.44-.85,1.04-1.82,1.75-3.74,1.86-5.5,.18-.95,.25-1.87,.13-2.64-.08-.54-.23-1.28-.42-2.12-.43-3.12-1.23-6.39-2.18-8.62-.06-.23-.1-.35-.1-.35l-.14-.19c-.49-1.02-1.01-1.74-1.53-2.02l-.03-.04-2.02-1.39-.03-.04-.47-.69c-.31-.5-.7-1.15-1.3-2.08-1.99-3.04-7.28-6.86-10.47-7.84-3.16-.96-20.73-6.51-29.29-6.6h0s-.07,0-.11,0c-.03,0-.07,0-.11,0h0c-.1,0-.2,.01-.3,.01h-.15c-.65,.02-1.35,.07-2.08,.14h-.03c-3.07,.31-6.79,1.05-10.47,1.92h-.04c-3.17,.76-6.31,1.61-9,2.38h-.02c-3.44,.99-6.14,1.83-7.2,2.15-.93,.28-2.05,.82-3.21,1.5h-.01c-2.42,1.44-5.03,3.53-6.6,5.46h-.02l-.03,.05c-.22,.28-.43,.55-.61,.82-.52,.79-.87,1.39-1.16,1.85l-.64,.96h0l-1.99,1.39c-.57,.27-1.14,1.09-1.67,2.24h0v.03c-1.13,2.46-2.08,6.43-2.47,10-.08,.41-.15,.78-.19,1.07-.08,.55-.07,1.17,0,1.83,0,.1,0,.21,0,.3,0,2.15,.98,4.61,2.38,6.82l.02,.04c.04,.07,.1,.16,.16,.24,1.63,2.49,3.77,4.61,5.6,5.57,.36,.32,.58,.52,.58,.52l.72-.04c.18,.03,.36,.07,.52,.07,.17,0,.44-.05,.76-.14h.04c.36-.11,.8-.25,1.32-.44,.03,2.04,.13,3.28,.2,3.95-2.4,3.22-2.83,5.56-.51,5.56,1.25,0,2.85-.56,4.67-1.47-.1,10.72,.07,22.46,1.01,28.14,1.78,10.78,4,35,13.78,35h4.29s.03,.04,.05,.06c-.01,3.79-1.16,20.91-1.44,27.27Z"/><g><path class="avatar-3" d="M134.34,56.5c-.35-5.94-11.18-19.34-31.23-19.38-20.04,.05-30.87,13.45-31.23,19.38-.36,5.95-1.33,38.61,.44,49.39s4,35,13.78,35h34.01c9.78,0,12-24.22,13.78-35,1.78-10.78,.8-43.44,.44-49.39Z"/><path class="avatar-13" d="M76.67,104.56s.89,1.34,4.33,2.84,3.67,8.28,3.67,8.28"/><path class="avatar-13" d="M129.34,104.56s-.89,1.34-4.33,2.84-3.67,8.28-3.67,8.28"/><path class="avatar-13" d="M68.44,74.95s3.77,.28,3.78,5.5,10.54-1.56,10.54-1.56c0,0,8.58-11.78,11.79-12.67s12.41-2.11,14.92-.78,17.3,13.33,19.49,15,4.71,1.11,4.71-.33,3.28-6.67,3.28-6.67l-31.4-17.22-16.98,6.22-20.12,12.5Z"/><ellipse class="avatar-8" cx="104.98" cy="99.06" rx=".76" ry="1.08"/><path class="avatar-8" d="M107.26,129.96c0,.6-.77,1.5-.76,1.08,.03-.85-1.84-2.11-1.84-2.71s.92-.17,1.84,.54c.33,.26,.76,.49,.76,1.08Z"/><path class="avatar-13" d="M107.31,70.26l-.72,9.33s2.81-4.56,5.16-6.17,5.9-2.17,5.9-2.17c0,0-4.75-.13-6.28-.28-1.63-.16-4.06-.71-4.06-.71Z"/><path class="avatar-13" d="M98.61,70.29l1,9.33s-2.81-4.56-5.16-6.17-5.9-2.17-5.9-2.17c0,0,4.75-.13,6.28-.28,1.63-.16,3.78-.71,3.78-.71Z"/><g><path d="M78.43,78.89v-1.1c.08-.17,1.9-4.07,6.01-6.13,2.45-1.22,5.2-1.33,8.12-1.44,2.03-.08,4.14-.16,6.34-.6l.06,3.91c-2.28,.47-5.15-.95-7.23-.87-2.8,.11-5.53-.13-7.79,1-3.79,1.89-5.49,5.18-5.51,5.22Z"/><path d="M83.94,73.67c-3.79,1.89-5.49,5.18-5.51,5.22"/></g><g><path d="M127.55,78.89v-1.1c-.08-.17-1.9-4.07-6.01-6.13-2.45-1.22-5.2-1.33-8.12-1.44-2.03-.08-4.14-.16-6.34-.6l-.06,3.91c2.28,.47,5.15-.95,7.23-.87,2.8,.11,5.53-.13,7.79,1,3.79,1.89,5.49,5.18,5.51,5.22Z"/><path d="M122.04,73.67c3.79,1.89,5.49,5.18,5.51,5.22"/></g><circle class="avatar-2" cx="90.9" cy="84.18" r="1.96"/><circle class="avatar-2" cx="115.33" cy="84.18" r="1.96"/><circle class="avatar-8" cx="115.33" cy="83.32" r=".62"/><circle class="avatar-8" cx="90.9" cy="83.32" r=".62"/><path class="avatar-2" d="M166.12,213.56s-12.56-32.56-16.11-35.44-19.33-6.89-32.72-9.89h-28.34c-13.39,3-29.17,7-32.72,9.89s-16.11,35.44-16.11,35.44h126.01Z"/><path class="avatar-3" d="M103.22,176.11c-8.35,0-14.33-2.22-14.28-6.11s1.5-25,1.5-29.11h25.34c0,4.11,1.44,25.22,1.5,29.11s-5.93,6.11-14.28,6.11"/><path class="avatar-13" d="M102.99,154.89c-7.77,0-11.71-.9-11.66-2.44s-.56-10.53-.56-12.17l24.5,.67c0,1.63-.16,10.57-.11,12.11s-4.61,1.83-12.37,1.83"/><path class="avatar-13" d="M110.29,105.5c1.01-1.61-2-2.67-3.5-2.83-1.46-.16-1.52,1.87-3.67,1.98-2.16-.11-2.21-2.14-3.67-1.98-1.5,.17-4.51,1.22-3.5,2.83"/><path class="avatar-1" d="M98.78,102.55c.14,.38,.21,.79,.21,1.22,0,2-1.62,3.63-3.63,3.63s-3.63-1.62-3.63-3.63,1.62-3.63,3.63-3.63"/><path class="avatar-1" d="M110.29,105.5c1.01-1.61-2-2.67-3.5-2.83-1.46-.16-1.52,1.87-3.67,1.98-2.16-.11-2.21-2.14-3.67-1.98-1.5,.17-4.51,1.22-3.5,2.83"/><polygon class="avatar-13" points="100.19 86.14 99.61 96.64 94.45 97.97 97.69 94.39 100.19 86.14"/><polygon class="avatar-13" points="105.74 86.14 106.33 96.64 111.48 97.97 108.24 94.39 105.74 86.14"/><path class="avatar-2" d="M116.53,133.14v5.46c0,2.28-1.84,4.12-4.12,4.12h-18.59c-2.28,0-4.12-1.84-4.12-4.12v-5.46c0-.69,.56-1.25,1.25-1.25h0c.69,0,1.25,.56,1.25,1.25v4.55c0,.69,.56,1.25,1.25,1.25h19.33c.69,0,1.25-.56,1.25-1.25v-4.55c0-.69,.56-1.25,1.25-1.25h0c.69,0,1.25,.56,1.25,1.25Z"/><path class="avatar-2" d="M95.66,109.22h5.46v2.34h-7.67c-.69,0-1.25,3.59-1.25,4.28v7.47c0,.69-.56,1.25-1.25,1.25s-1.25-.56-1.25-1.25v-8.13c0-3.29,2.67-5.96,5.96-5.96Z"/><path class="avatar-2" d="M116.53,115.18v8.13c0,.69-.56,1.25-1.25,1.25s-1.25-.56-1.25-1.25v-7.47c0-.69-.56-4.28-1.25-4.28h-7.66v-2.34h5.45c3.29,0,5.96,2.67,5.96,5.96Z"/><path class="avatar-13" d="M109.94,121.22h-13.65l-1.84,4.01,2.64,4.73s2.42-4.37,6.02-4.37,6.02,4.37,6.02,4.37l2.64-4.73-1.84-4.01Z"/><path class="avatar-2" d="M108.79,123.67h-11.34l-1.53,2.24,2.19,2.65s2.01-2.44,5.01-2.44,5.01,2.44,5.01,2.44l2.19-2.65-1.53-2.24Z"/><path d="M93.46,115.67c0-1.43,4.77-1.85,8.77-1.95,3.7-.09,9.92,.03,10.01,1.92"/><path d="M93.46,115.67c0-1.43,4.77-1.85,8.77-1.95,3.7-.09,9.92,.03,10.01,1.92"/><path class="avatar-8" d="M112.24,115.82c0,.23-4.77,.3-8.77,.31-3.7,.01-9.92,0-10.01-.31"/><path class="avatar-2" d="M102.96,52.86c-3.98,0-36,11.14-36,15.54s.3,5.89,.3,5.89c0,0,31.73-16,35.7-16s35.7,16,35.7,16c0,0,.3-1.49,.3-5.89s-32.02-15.54-36-15.54Z"/><path class="avatar-4" d="M103.32,55.33h0s-.09,0-.14,0c-.05,0-.09,0-.14,0h0c-23.35,.19-43.76,23.9-36.39,23.9s26.54-19.23,36.3-19.23,29.34,19.23,36.75,19.23-13.03-23.7-36.39-23.89Z"/><path class="avatar-11" d="M102.75,22.95l.11,30.26-37.22,16.94-2.02,.11s-5.51-4.89-6.35-6.33-2.82-6.2-2.4-8.99,2.66-11.09,2.66-11.09l1.67-2.25,2-1.39,2.43-3.68,6.62-5.47,10.42-3.65,9.03-2.38,10.49-1.92,2.55-.15Z"/><path class="avatar-10" d="M102.3,22.95l-.11,30.26,37.8,16.94,2.06,.11s5.6-4.89,6.45-6.33,2.86-6.2,2.44-8.99-2.7-11.09-2.7-11.09l-1.7-2.25-2.03-1.39-2.47-3.68-6.73-5.47-10.59-3.65-9.18-2.38-10.66-1.92-2.59-.15Z"/><path class="avatar-11" d="M102.85,23.34s5.84,10.78,5.76,15.44-2.24,9.58-5.66,9.58"/><path class="avatar-11" d="M114.52,25.79s14.4,10.98,15.88,16.05,.32,11.74-3.39,12.89"/><path class="avatar-10" d="M94.8,24.45s-8.27,16.23-10.85,21.6-5.19,10.33-10.12,8.88"/><path class="avatar-10" d="M94.76,24.45s-14.94,12.47-19.09,17.04-6,10.91-1.84,13.45"/><path class="avatar-9" d="M93.39,25.6s-14.04,11.44-17.73,15.89-5.39,9.81-3.08,12.11l5.12-8.57c1.8-3.01,3.86-5.85,6.16-8.49l9.53-10.95Z"/><path class="avatar-10" d="M102.45,23.43s-5.19,12.43-5.99,16.51,1.58,8.45,6.49,8.42"/><path class="avatar-9" d="M102.45,23.43s-5.42,12.42-5.99,16.51,1.31,8.4,4.2,8.24"/><path class="avatar-9" d="M114.53,26.76s3.21,15.62,4.04,19.93,4.84,9.17,7.7,8.04"/><path class="avatar-1" d="M146.51,41.6c-2.17-1.04-1.81-1.17-3.79-4.21-1.99-3.04-7.28-6.86-10.47-7.84-3.16-.96-20.73-6.51-29.29-6.6h0s-.07,0-.11,0c-.03,0-.07,0-.11,0h0c-8.56,.09-26.12,5.64-29.29,6.61-3.19,.97-8.49,4.79-10.47,7.84-1.99,3.04-1.63,3.17-3.79,4.21s-4.33,9.91-4.33,15.48,6.56,13.21,9.99,13.21,35.62-16.61,38-17.07c2.38,.47,34.62,17.07,38,17.07s9.99-7.64,9.99-13.21-2.17-14.44-4.33-15.48Z"/></g></g></g></svg>