<svg xmlns="http://www.w3.org/2000/svg" viewBox="0 0 75 75"><defs><style>.cls-1{fill:#fff;}.cls-2{stroke:#000;stroke-miterlimit:10;}</style></defs><g id="Capa_2" data-name="Capa 2"><g id="Capa_1-2" data-name="Capa 1"><path class="cls-1" d="M73.5,19.94V6.53a5,5,0,0,0-5-5H6.53a5,5,0,0,0-5,5V19.94"/><path d="M75,19.94H72V6.53A3.53,3.53,0,0,0,68.47,3H6.53A3.53,3.53,0,0,0,3,6.53V19.94H0V6.53A6.54,6.54,0,0,1,6.53,0H68.47A6.54,6.54,0,0,1,75,6.53Z"/><path class="cls-1" d="M1.5,55.06V68.47a5,5,0,0,0,5,5H68.47a5,5,0,0,0,5-5V55.06"/><path d="M68.47,75H6.53A6.54,6.54,0,0,1,0,68.47V55.06H3V68.47A3.53,3.53,0,0,0,6.53,72H68.47A3.53,3.53,0,0,0,72,68.47V55.06h3V68.47A6.54,6.54,0,0,1,68.47,75Z"/><path class="cls-2" d="M23.79,24a37.3,37.3,0,0,1,6.08-.47c3.12,0,5.41.73,6.87,2a6.59,6.59,0,0,1,2.14,5.12A7.2,7.2,0,0,1,37,35.88c-1.67,1.78-4.4,2.69-7.49,2.69A10.92,10.92,0,0,1,27,38.35v9.82H23.79ZM27,35.77a10.71,10.71,0,0,0,2.62.25c3.81,0,6.14-1.85,6.14-5.23S33.43,26,29.94,26a13.65,13.65,0,0,0-3,.25Z"/><path class="cls-2" d="M41.79,44.9A8.39,8.39,0,0,0,46,46.17c2.32,0,3.42-1.16,3.42-2.62s-.91-2.36-3.28-3.23c-3.16-1.13-4.65-2.88-4.65-5,0-2.83,2.29-5.16,6.07-5.16a8.82,8.82,0,0,1,4.33,1.09l-.8,2.33a6.83,6.83,0,0,0-3.6-1c-1.89,0-3,1.09-3,2.4s1.06,2.11,3.35,3c3.05,1.17,4.62,2.69,4.62,5.31,0,3.09-2.4,5.27-6.58,5.27A10,10,0,0,1,41,47.33Z"/></g></g></svg>