<svg xmlns="http://www.w3.org/2000/svg" viewBox="0 0 75 75"><defs><style>.cls-1{fill:#fff;}</style></defs><g id="Capa_2" data-name="Capa 2"><g id="Capa_1-2" data-name="Capa 1"><path class="cls-1" d="M73.5,19.94V6.53a5,5,0,0,0-5-5H6.53a5,5,0,0,0-5,5V19.94"/><path d="M75,19.94H72V6.53A3.53,3.53,0,0,0,68.47,3H6.53A3.53,3.53,0,0,0,3,6.53V19.94H0V6.53A6.54,6.54,0,0,1,6.53,0H68.47A6.54,6.54,0,0,1,75,6.53Z"/><path class="cls-1" d="M1.5,55.06V68.47a5,5,0,0,0,5,5H68.47a5,5,0,0,0,5-5V55.06"/><path d="M68.47,75H6.53A6.54,6.54,0,0,1,0,68.47V55.06H3V68.47A3.53,3.53,0,0,0,6.53,72H68.47A3.53,3.53,0,0,0,72,68.47V55.06h3V68.47A6.54,6.54,0,0,1,68.47,75Z"/><path d="M54.19,52.82H20.82A5.84,5.84,0,0,1,15,47V28a5.84,5.84,0,0,1,5.84-5.83H54.19A5.84,5.84,0,0,1,60,28V47A5.84,5.84,0,0,1,54.19,52.82ZM20.82,25.18A2.84,2.84,0,0,0,18,28V47a2.84,2.84,0,0,0,2.84,2.83H54.19A2.83,2.83,0,0,0,57,47V28a2.83,2.83,0,0,0-2.83-2.83Z"/><polygon points="37.49 39.29 16.92 25.76 18.57 23.25 37.51 35.71 56.63 23.41 58.25 25.93 37.49 39.29"/></g></g></svg>