<svg xmlns="http://www.w3.org/2000/svg" viewBox="0 0 75 75"><defs><style>.cls-1{fill:#fff;}.cls-2{stroke:#000;stroke-miterlimit:10;}</style></defs><g id="Capa_2" data-name="Capa 2"><g id="Capa_1-2" data-name="Capa 1"><path class="cls-1" d="M73.5,19.94V6.53a5,5,0,0,0-5-5H6.53a5,5,0,0,0-5,5V19.94"/><path d="M75,19.94H72V6.53A3.53,3.53,0,0,0,68.47,3H6.53A3.53,3.53,0,0,0,3,6.53V19.94H0V6.53A6.54,6.54,0,0,1,6.53,0H68.47A6.54,6.54,0,0,1,75,6.53Z"/><path class="cls-1" d="M1.5,55.06V68.47a5,5,0,0,0,5,5H68.47a5,5,0,0,0,5-5V55.06"/><path d="M68.47,75H6.53A6.54,6.54,0,0,1,0,68.47V55.06H3V68.47A3.53,3.53,0,0,0,6.53,72H68.47A3.53,3.53,0,0,0,72,68.47V55.06h3V68.47A6.54,6.54,0,0,1,68.47,75Z"/><path class="cls-2" d="M12,37.52l16.87-8.69v2.5L14.65,38.46v.07l14.22,7.13v2.51L12,39.48Z"/><path class="cls-2" d="M31.23,49.62,41.37,23.26h2.48L33.67,49.62Z"/><path class="cls-2" d="M63,39.52,46.13,48.17V45.66l14.33-7.13v-.07L46.13,31.33v-2.5L63,37.48Z"/></g></g></svg>